<mxfile host="app.diagrams.net" modified="2021-10-22T17:13:19.889Z" agent="5.0 (Windows NT 10.0; WOW64) AppleWebKit/537.36 (KHTML, like Gecko) Chrome/95.0.4638.54 Safari/537.36" etag="MES9RkQwR0H08DA5vYLy" version="15.5.8" type="github">
  <diagram id="C5RBs43oDa-KdzZeNtuy" name="Page-1">
    <mxGraphModel dx="1422" dy="762" grid="1" gridSize="10" guides="1" tooltips="1" connect="1" arrows="1" fold="1" page="1" pageScale="1" pageWidth="827" pageHeight="1169" math="0" shadow="0">
      <root>
        <mxCell id="WIyWlLk6GJQsqaUBKTNV-0" />
        <mxCell id="WIyWlLk6GJQsqaUBKTNV-1" parent="WIyWlLk6GJQsqaUBKTNV-0" />
        <mxCell id="WIyWlLk6GJQsqaUBKTNV-2" value="" style="rounded=0;html=1;jettySize=auto;orthogonalLoop=1;fontSize=11;endArrow=block;endFill=0;endSize=8;strokeWidth=1;shadow=0;labelBackgroundColor=none;edgeStyle=orthogonalEdgeStyle;" parent="WIyWlLk6GJQsqaUBKTNV-1" source="WIyWlLk6GJQsqaUBKTNV-3" edge="1">
          <mxGeometry relative="1" as="geometry">
            <mxPoint x="220" y="170" as="targetPoint" />
          </mxGeometry>
        </mxCell>
        <mxCell id="WIyWlLk6GJQsqaUBKTNV-3" value="Hungry" style="rounded=1;whiteSpace=wrap;html=1;fontSize=12;glass=0;strokeWidth=1;shadow=0;" parent="WIyWlLk6GJQsqaUBKTNV-1" vertex="1">
          <mxGeometry x="160" y="80" width="120" height="40" as="geometry" />
        </mxCell>
        <mxCell id="J4O9GTV1QkCv1x1AF7Fn-0" value="go to pantry and get bread, peanut butter and jelly" style="whiteSpace=wrap;html=1;aspect=fixed;rounded=0;sketch=0;" vertex="1" parent="WIyWlLk6GJQsqaUBKTNV-1">
          <mxGeometry x="180" y="170" width="80" height="80" as="geometry" />
        </mxCell>
        <mxCell id="J4O9GTV1QkCv1x1AF7Fn-1" value="put them all on the counter" style="whiteSpace=wrap;html=1;aspect=fixed;rounded=0;sketch=0;" vertex="1" parent="WIyWlLk6GJQsqaUBKTNV-1">
          <mxGeometry x="190" y="300" width="80" height="80" as="geometry" />
        </mxCell>
        <mxCell id="J4O9GTV1QkCv1x1AF7Fn-2" value="" style="endArrow=classic;html=1;rounded=1;sketch=0;curved=0;" edge="1" parent="WIyWlLk6GJQsqaUBKTNV-1">
          <mxGeometry width="50" height="50" relative="1" as="geometry">
            <mxPoint x="230" y="260" as="sourcePoint" />
            <mxPoint x="230" y="290" as="targetPoint" />
          </mxGeometry>
        </mxCell>
        <mxCell id="J4O9GTV1QkCv1x1AF7Fn-4" value="get a knife from a cabinit and put it next to the plate" style="whiteSpace=wrap;html=1;aspect=fixed;rounded=0;sketch=0;" vertex="1" parent="WIyWlLk6GJQsqaUBKTNV-1">
          <mxGeometry x="240" y="570" width="80" height="80" as="geometry" />
        </mxCell>
        <mxCell id="J4O9GTV1QkCv1x1AF7Fn-5" value="" style="endArrow=classic;html=1;rounded=1;sketch=0;curved=0;exitX=0.5;exitY=1;exitDx=0;exitDy=0;entryX=0.25;entryY=0;entryDx=0;entryDy=0;" edge="1" parent="WIyWlLk6GJQsqaUBKTNV-1" source="J4O9GTV1QkCv1x1AF7Fn-1" target="J4O9GTV1QkCv1x1AF7Fn-7">
          <mxGeometry width="50" height="50" relative="1" as="geometry">
            <mxPoint x="390" y="380" as="sourcePoint" />
            <mxPoint x="440" y="330" as="targetPoint" />
          </mxGeometry>
        </mxCell>
        <mxCell id="J4O9GTV1QkCv1x1AF7Fn-7" value="get plate from cabnit and put it on the counter" style="whiteSpace=wrap;html=1;aspect=fixed;rounded=0;sketch=0;" vertex="1" parent="WIyWlLk6GJQsqaUBKTNV-1">
          <mxGeometry x="230" y="420" width="80" height="80" as="geometry" />
        </mxCell>
        <mxCell id="J4O9GTV1QkCv1x1AF7Fn-8" value="" style="endArrow=classic;html=1;rounded=1;sketch=0;curved=0;exitX=0.5;exitY=1;exitDx=0;exitDy=0;entryX=0.35;entryY=0.013;entryDx=0;entryDy=0;entryPerimeter=0;" edge="1" parent="WIyWlLk6GJQsqaUBKTNV-1" source="J4O9GTV1QkCv1x1AF7Fn-7" target="J4O9GTV1QkCv1x1AF7Fn-4">
          <mxGeometry width="50" height="50" relative="1" as="geometry">
            <mxPoint x="390" y="540" as="sourcePoint" />
            <mxPoint x="440" y="490" as="targetPoint" />
          </mxGeometry>
        </mxCell>
        <mxCell id="J4O9GTV1QkCv1x1AF7Fn-9" value="open the jelly jar and get the knife and scope out the jelly" style="whiteSpace=wrap;html=1;aspect=fixed;rounded=0;sketch=0;" vertex="1" parent="WIyWlLk6GJQsqaUBKTNV-1">
          <mxGeometry x="230" y="850" width="80" height="80" as="geometry" />
        </mxCell>
        <mxCell id="J4O9GTV1QkCv1x1AF7Fn-11" value="put 2 pieces of bread on the plate" style="whiteSpace=wrap;html=1;aspect=fixed;rounded=0;sketch=0;" vertex="1" parent="WIyWlLk6GJQsqaUBKTNV-1">
          <mxGeometry x="230" y="700" width="80" height="80" as="geometry" />
        </mxCell>
        <mxCell id="J4O9GTV1QkCv1x1AF7Fn-17" style="edgeStyle=orthogonalEdgeStyle;curved=0;rounded=1;sketch=0;orthogonalLoop=1;jettySize=auto;html=1;exitX=1;exitY=0.5;exitDx=0;exitDy=0;" edge="1" parent="WIyWlLk6GJQsqaUBKTNV-1" source="J4O9GTV1QkCv1x1AF7Fn-12" target="J4O9GTV1QkCv1x1AF7Fn-16">
          <mxGeometry relative="1" as="geometry" />
        </mxCell>
        <mxCell id="J4O9GTV1QkCv1x1AF7Fn-12" value="spread the jelly" style="whiteSpace=wrap;html=1;aspect=fixed;rounded=0;sketch=0;" vertex="1" parent="WIyWlLk6GJQsqaUBKTNV-1">
          <mxGeometry x="220" y="980" width="80" height="80" as="geometry" />
        </mxCell>
        <mxCell id="J4O9GTV1QkCv1x1AF7Fn-13" value="" style="endArrow=classic;html=1;rounded=1;sketch=0;curved=0;exitX=0.5;exitY=1;exitDx=0;exitDy=0;entryX=0.5;entryY=0;entryDx=0;entryDy=0;" edge="1" parent="WIyWlLk6GJQsqaUBKTNV-1" source="J4O9GTV1QkCv1x1AF7Fn-4" target="J4O9GTV1QkCv1x1AF7Fn-11">
          <mxGeometry width="50" height="50" relative="1" as="geometry">
            <mxPoint x="540" y="790" as="sourcePoint" />
            <mxPoint x="590" y="740" as="targetPoint" />
          </mxGeometry>
        </mxCell>
        <mxCell id="J4O9GTV1QkCv1x1AF7Fn-14" value="" style="endArrow=classic;html=1;rounded=1;sketch=0;curved=0;exitX=0.5;exitY=1;exitDx=0;exitDy=0;entryX=0.5;entryY=0;entryDx=0;entryDy=0;" edge="1" parent="WIyWlLk6GJQsqaUBKTNV-1" source="J4O9GTV1QkCv1x1AF7Fn-11" target="J4O9GTV1QkCv1x1AF7Fn-9">
          <mxGeometry width="50" height="50" relative="1" as="geometry">
            <mxPoint x="540" y="790" as="sourcePoint" />
            <mxPoint x="590" y="740" as="targetPoint" />
          </mxGeometry>
        </mxCell>
        <mxCell id="J4O9GTV1QkCv1x1AF7Fn-15" value="" style="endArrow=classic;html=1;rounded=1;sketch=0;curved=0;exitX=0.425;exitY=1.038;exitDx=0;exitDy=0;exitPerimeter=0;entryX=0.5;entryY=0;entryDx=0;entryDy=0;" edge="1" parent="WIyWlLk6GJQsqaUBKTNV-1" source="J4O9GTV1QkCv1x1AF7Fn-9" target="J4O9GTV1QkCv1x1AF7Fn-12">
          <mxGeometry width="50" height="50" relative="1" as="geometry">
            <mxPoint x="540" y="790" as="sourcePoint" />
            <mxPoint x="590" y="740" as="targetPoint" />
          </mxGeometry>
        </mxCell>
        <mxCell id="J4O9GTV1QkCv1x1AF7Fn-20" style="edgeStyle=orthogonalEdgeStyle;curved=0;rounded=1;sketch=0;orthogonalLoop=1;jettySize=auto;html=1;" edge="1" parent="WIyWlLk6GJQsqaUBKTNV-1" source="J4O9GTV1QkCv1x1AF7Fn-16" target="J4O9GTV1QkCv1x1AF7Fn-18">
          <mxGeometry relative="1" as="geometry" />
        </mxCell>
        <mxCell id="J4O9GTV1QkCv1x1AF7Fn-16" value="after that open the peanut butter jar and scope out the peanut butter with the knife" style="whiteSpace=wrap;html=1;aspect=fixed;rounded=0;sketch=0;" vertex="1" parent="WIyWlLk6GJQsqaUBKTNV-1">
          <mxGeometry x="440" y="970" width="80" height="80" as="geometry" />
        </mxCell>
        <mxCell id="J4O9GTV1QkCv1x1AF7Fn-21" style="edgeStyle=orthogonalEdgeStyle;curved=0;rounded=1;sketch=0;orthogonalLoop=1;jettySize=auto;html=1;" edge="1" parent="WIyWlLk6GJQsqaUBKTNV-1" source="J4O9GTV1QkCv1x1AF7Fn-18" target="J4O9GTV1QkCv1x1AF7Fn-19">
          <mxGeometry relative="1" as="geometry" />
        </mxCell>
        <mxCell id="J4O9GTV1QkCv1x1AF7Fn-18" value="spread the peanut butter on the knife on the bread" style="whiteSpace=wrap;html=1;aspect=fixed;rounded=0;sketch=0;" vertex="1" parent="WIyWlLk6GJQsqaUBKTNV-1">
          <mxGeometry x="470" y="720" width="100" height="100" as="geometry" />
        </mxCell>
        <mxCell id="J4O9GTV1QkCv1x1AF7Fn-19" value="close the 2 pieces of bread on top of each other and eat" style="whiteSpace=wrap;html=1;aspect=fixed;rounded=0;sketch=0;" vertex="1" parent="WIyWlLk6GJQsqaUBKTNV-1">
          <mxGeometry x="490" y="590" width="80" height="80" as="geometry" />
        </mxCell>
      </root>
    </mxGraphModel>
  </diagram>
</mxfile>
